<?xml version="1.0" encoding="UTF-8"?>
<svg width="565px" height="304px" viewBox="0 0 565 304" version="1.1" xmlns="http://www.w3.org/2000/svg" xmlns:xlink="http://www.w3.org/1999/xlink">
    <!-- Generator: Sketch 46.2 (44496) - http://www.bohemiancoding.com/sketch -->
    <title>Page 1 Copy</title>
    <desc>Created with Sketch.</desc>
    <defs>
        <polygon id="path-1" points="26.1388574 0.500182364 0.582287531 0.500182364 0.582287531 26.7276426 26.1388574 26.7276426 26.1388574 0.500182364"></polygon>
    </defs>
    <g id="Welcome" stroke="none" stroke-width="1" fill="none" fill-rule="evenodd">
        <g id="Duft-&amp;-Co.-Brickhouse" transform="translate(-437.000000, -350.000000)">
            <g id="Page-1-Copy" transform="translate(437.183594, 350.044281)">
                <polygon id="Fill-1" fill="#FFFFFF" points="256.245922 74.7970552 228.780991 89.0375645 228.780991 104.761424 256.245922 90.5226339"></polygon>
                <polygon id="Fill-2" fill="#FFFFFF" points="244.254192 144.67954 256.065401 138.601756 256.065401 122.924305 244.254192 129.046778"></polygon>
                <polygon id="Fill-3" fill="#FFFFFF" points="277.861984 88.5476978 244.254192 105.921635 244.254192 121.645495 277.861984 104.271558"></polygon>
                <polygon id="Fill-4" fill="#FFFFFF" points="282.758392 109.173662 282.756673 109.173662 282.754953 109.173662 282.754953 109.175381 264.885126 118.364248 264.885126 134.088108 282.756673 124.899241 300.62822 134.088108 300.62822 118.364248 282.758392 109.175381"></polygon>
                <polygon id="Fill-5" fill="#FFFFFF" points="307.866239 74.7970552 307.866239 90.5209151 335.05953 104.641106 335.05953 88.9155275"></polygon>
                <polygon id="Fill-6" fill="#FFFFFF" points="307.866239 138.649883 319.610398 144.729386 319.610398 129.003807 307.866239 122.924305"></polygon>
                <polygon id="Fill-7" fill="#FFFFFF" points="300.62822 86.1430542 300.62822 70.4191943 282.758392 61.0498501 282.758392 61.0464125 282.756673 61.0481313 282.754953 61.0464125 282.754953 61.0498501 264.885126 70.2369983 264.885126 85.962577 282.756673 76.77371"></polygon>
                <polygon id="Fill-8" fill="#FFFFFF" points="287.235305 104.273277 320.69868 121.619712 320.69868 105.894134 287.235305 88.5476978"></polygon>
                <g id="Group-84" transform="translate(0.000000, 0.186065)">
                    <path d="M163.5838,60.4527347 C161.76312,58.5173317 159.865074,57.2385219 157.896539,56.6266183 C155.926285,56.0129959 154.07122,56.0473725 152.329625,56.7349047 C151.573158,57.0322623 150.854513,57.4430628 150.177131,57.9638683 C149.501468,58.4881116 148.585111,59.2925242 147.429778,60.3805438 L159.767077,73.5089699 C160.475406,74.2600988 161.030722,74.7757479 161.426148,75.0507607 C161.825013,75.3257736 162.28577,75.3859326 162.811859,75.2278002 C163.339667,75.0713867 163.977507,74.6365226 164.732255,73.9300833 C166.962115,71.8331103 167.806264,69.5694108 167.262983,67.1389847 C166.717983,64.7119962 165.492161,62.4843921 163.5838,60.4527347 M168.124325,56.3412925 C169.394846,57.6922932 170.309484,59.1275165 170.875116,60.6469625 C171.439028,62.1664085 171.698634,63.630852 171.655653,65.0368552 C171.610953,66.4428584 171.351347,67.7199493 170.86652,68.8629715 C169.847008,71.2744905 168.074467,73.6688211 165.550616,76.040807 L157.021444,84.053994 L155.828288,82.7872161 C156.62086,82.0464002 157.141791,81.4069953 157.404835,80.8775956 C157.66616,80.3447581 157.716018,79.870361 157.557848,79.4526852 C157.396239,79.0315718 157.054109,78.5417051 156.524582,77.9796476 L145.442332,66.1901903 C144.680706,65.3823401 143.982693,64.968102 143.339696,64.947476 C142.700137,64.9285689 141.785499,65.4734381 140.600939,66.588959 L139.380275,65.2929609 L143.313907,61.4427809 C143.453166,61.3138687 144.005043,60.7793124 144.969539,59.8373934 C145.934036,58.8954744 146.497948,58.3506052 146.65268,58.2045046 C148.184527,56.7624059 149.566799,55.6211026 150.792621,54.7805946 C152.016723,53.9400865 153.249421,53.286931 154.485558,52.8176903 C155.615102,52.3793886 156.799661,52.131877 158.044394,52.0768744 C159.289127,52.0235907 160.504633,52.1507842 161.689192,52.4636113 C162.87719,52.7781572 164.01705,53.2594297 165.10877,53.9074288 C166.207367,54.5571466 167.211406,55.3684345 168.124325,56.3412925" id="Fill-9" fill="#FFFFFF"></path>
                    <path d="M204.350526,20.9370751 C203.343049,21.4819443 202.684578,21.9924369 202.375114,22.4616776 C202.060492,22.9326371 201.972811,23.4104719 202.106912,23.8951821 C202.242732,24.3816111 202.553916,25.0742997 203.040462,25.9715291 L207.546602,34.2786361 C208.376997,35.8083951 208.946067,36.9857939 209.258969,37.8125513 C209.571872,38.6427463 209.71285,39.5709147 209.685342,40.6022129 C209.669869,42.5788678 209.057818,44.2598839 207.856066,45.6504176 C206.652595,47.0426702 205.351126,48.1135015 203.9551,48.8715057 C202.925272,49.4318444 201.79229,49.8701461 200.550996,50.1915674 C199.31142,50.5112698 198.054653,50.6178373 196.775535,50.5078322 C195.499855,50.397827 194.339365,49.9698383 193.306099,49.2255847 C192.738749,48.8165031 192.23501,48.371326 191.788006,47.8900536 C191.339284,47.4104999 190.966207,46.9292274 190.673936,46.4513926 C190.376507,45.9735577 190.010307,45.3358717 189.582216,44.5400532 L184.453709,35.1672714 C183.92762,34.1909758 183.36027,33.6082923 182.761973,33.4175021 C182.161956,33.226712 181.159637,33.5120378 179.755014,34.2751985 L178.9229,32.7471583 L190.292264,26.5834327 L191.122659,28.1114729 C190.159882,28.6339973 189.492815,29.1204263 189.121458,29.5724787 C188.748382,30.0262499 188.586773,30.4697081 188.641789,30.9097287 C188.689928,31.3463116 188.894518,31.8963373 189.257278,32.5632434 L194.353119,41.9514947 C194.87405,42.9140397 195.377789,43.7339218 195.866054,44.4094221 C196.35432,45.0832036 196.846024,45.6383858 197.336008,46.0732499 C198.200788,46.7659385 199.230616,47.135487 200.422052,47.1836143 C201.620366,47.2317415 202.760225,46.9618852 203.846787,46.3723264 C205.010716,45.7397968 205.939108,44.8700687 206.631964,43.7528289 C207.324819,42.6390269 207.620529,41.5252248 207.512217,40.4045474 C207.438289,39.5262251 207.242295,38.6857171 206.927674,37.876148 C206.609613,37.0665789 206.166048,36.1332541 205.59354,35.0813299 L201.193993,26.9701695 C200.798567,26.2413855 200.482226,25.7085481 200.243251,25.3785326 C200.007714,25.0485172 199.717162,24.8027245 199.369875,24.6394356 C199.022587,24.4761467 198.58418,24.4572396 198.05981,24.584433 C197.533722,24.7133453 196.868374,24.9952335 196.05689,25.4335352 L195.229934,23.905495 L203.523569,19.4073161 L204.350526,20.9370751 Z" id="Fill-11" fill="#FFFFFF"></path>
                    <path d="M245.806669,12.0335339 L244.087425,12.4941804 C243.413481,11.20162 242.741256,10.3061094 242.065593,9.80936746 C241.38993,9.3126255 240.715986,9.07370808 240.050639,9.09605287 C239.38873,9.11839767 238.493003,9.27996772 237.370336,9.58248186 L232.953597,10.7701936 L235.303805,19.5138835 L237.626504,18.8899481 C238.719943,18.5960281 239.412799,18.2092913 239.699913,17.7263 C239.988746,17.2450275 239.995623,16.3477981 239.720544,15.0397682 L241.401965,14.5877158 L243.612913,22.8191943 L241.898827,23.2815596 C241.580766,22.3482348 241.286775,21.6985169 241.011696,21.3272495 C240.733179,20.957701 240.375576,20.7480037 239.938888,20.6964388 C239.5022,20.6431551 238.88671,20.7239401 238.097577,20.9370751 L235.848805,21.5403845 L237.827655,28.8986972 C238.094138,29.8956188 238.491284,30.5779944 239.017373,30.9458241 C239.538304,31.3153726 240.542343,31.2981843 242.02777,30.8994157 L242.540105,30.7619093 L242.990547,32.4429253 L230.278453,35.8565224 L229.831449,34.178944 C231.337507,33.7715812 232.250426,33.2903087 232.565048,32.72997 C232.876231,32.1696313 232.888266,31.3600622 232.60631,30.3012627 L228.421669,14.747567 C228.234271,14.0411277 228.012488,13.5100092 227.75976,13.1542113 C227.50875,12.7966946 227.092693,12.5749655 226.513307,12.489024 C225.935641,12.4048013 225.125877,12.5010558 224.077138,12.7829439 L223.623257,11.1019279 L243.89315,5.65667337 L245.806669,12.0335339 Z" id="Fill-13" fill="#FFFFFF"></path>
                    <g id="Group-17" transform="translate(266.022083, 0.000000)">
                        <mask id="mask-2" fill="white">
                            <use xlink:href="#path-1"></use>
                        </mask>
                        <g id="Clip-16"></g>
                        <path d="M26.1388574,7.77427235 L24.3439661,7.83271258 C24.1290606,6.25138867 23.7405113,5.08945936 23.1817568,4.35208115 C22.6212831,3.6129841 22.0315822,3.16436938 21.4092157,3.00795582 C20.7834107,2.85154226 20.0699242,2.78622671 19.2635986,2.81200917 L16.0159456,2.91513899 L16.6108042,21.6778909 C16.6348737,22.4204256 16.7277129,22.994515 16.8944796,23.3984401 C17.0595271,23.8023652 17.4205684,24.1100359 17.9827614,24.3180143 C18.5432351,24.5277116 19.3598762,24.615372 20.4309656,24.5827142 L20.4825429,26.3187328 L7.63634782,26.7278145 L7.57789351,24.990077 C9.15444074,24.9402309 10.161918,24.6824064 10.6003254,24.2131657 C11.040452,23.7456438 11.2416036,22.9567007 11.2054995,21.8480551 L10.6106409,3.08702202 L7.88907677,3.17296354 C6.81626818,3.20734014 5.9325765,3.32078295 5.23112473,3.51329194 C4.52967296,3.70580094 3.92277965,4.19222993 3.41388327,4.97086007 C2.9015484,5.75120904 2.6350655,6.93376431 2.61099607,8.5254012 L0.814385542,8.58040377 L0.582287531,1.30631379 L25.9067594,0.500182364 L26.1388574,7.77427235 Z" id="Fill-15" fill="#FFFFFF" mask="url(#mask-2)"></path>
                    </g>
                    <path d="M327.184594,11.177628 C327.294625,10.6740107 327.304941,10.1789876 327.21554,9.69427745 C327.12442,9.20956729 326.911234,8.78329737 326.575981,8.41890534 C326.247605,8.05623214 325.810917,7.81215823 325.269355,7.69012128 C324.493976,7.51995707 323.830348,7.63168105 323.275032,8.03216851 C322.721435,8.43093715 322.374147,8.93971093 322.238327,9.55505219 C321.916828,10.9937132 322.238327,12.808798 323.197666,14.9985879 C324.244685,14.520753 325.114623,14.0188546 325.80576,13.4946113 C326.500334,12.9720869 326.957653,12.2003321 327.184594,11.177628 L327.184594,11.177628 Z M324.265316,27.8623141 L319.643987,17.9807585 C317.551667,18.6803224 316.324126,19.8439706 315.961365,21.4820159 C315.753337,22.4187784 315.792879,23.3967929 316.081712,24.4229346 C316.368826,25.4507951 316.858811,26.3531811 317.549947,27.1318112 C318.241084,27.9121602 319.059444,28.4071833 320.010186,28.6185994 C320.771812,28.7870448 321.492175,28.7836072 322.172996,28.6065676 C322.850378,28.4278093 323.546672,28.1802977 324.265316,27.8623141 L324.265316,27.8623141 Z M336.905202,29.2030018 C336.628404,30.1603903 336.195154,31.0576197 335.610611,31.8981277 C335.02091,32.7351981 334.274758,33.3780406 333.366997,33.8283742 C332.460955,34.2787077 331.420812,34.3732434 330.250007,34.1137 C329.67234,33.9847878 329.125621,33.7647775 328.606409,33.455388 C328.088916,33.1477174 327.559389,32.6836332 327.007511,32.0648543 C326.460792,31.4460753 325.816075,30.5505647 325.068204,29.3766036 C323.579338,30.2721142 322.135172,30.861673 320.735707,31.1418424 C319.334523,31.4237306 318.055405,31.4392 316.900073,31.1813755 C315.572816,30.8840178 314.446711,30.304772 313.521757,29.4402003 C312.593365,28.5756287 311.958964,27.5701129 311.606519,26.4184966 C311.255793,25.2685991 311.211093,24.1101075 311.470699,22.9413028 C311.623711,22.2520519 311.903948,21.5301431 312.313128,20.7755766 C312.71887,20.0192913 313.466742,19.211441 314.556743,18.3520258 C315.646744,17.489173 317.106382,16.7982032 318.940816,16.2773976 C318.552267,15.0535904 318.290942,13.9896345 318.149964,13.0786544 C318.012424,12.171112 318.050247,11.2309118 318.266872,10.2597726 C318.473182,9.3230101 318.839381,8.52031633 319.362031,7.8499725 C319.886401,7.17962867 320.482978,6.67429255 321.143168,6.33912063 C321.805077,6.00222989 322.520283,5.79081376 323.288786,5.70143458 C324.057288,5.61549306 324.805159,5.65330733 325.53068,5.81487738 C326.60177,6.05207597 327.480304,6.49553419 328.168001,7.14697089 C328.859138,7.79668876 329.328492,8.53750463 329.58294,9.36941852 C329.833949,10.1996136 329.871773,11.016058 329.698129,11.8153141 C329.460873,12.8723947 328.843665,13.8349397 327.85166,14.7046679 C326.857937,15.5761149 325.544434,16.2292704 323.907714,16.6641345 L327.951377,25.3906361 C328.833349,24.682478 329.631079,23.9485374 330.351442,23.1922521 C331.068367,22.4359667 331.518809,21.6453048 331.702768,20.8202662 C331.761223,20.5504098 331.716522,20.184299 331.565229,19.7253713 C331.420812,19.2681624 330.942862,18.94846 330.145133,18.7697016 L330.519928,17.0732161 L338.106954,18.7593886 L337.72872,20.457593 C337.016953,20.4541554 336.427252,20.5435345 335.956179,20.7222929 C335.481668,20.9010512 335.038103,21.1674699 334.613449,21.5181113 C334.193954,21.8704715 333.470152,22.564879 332.440324,23.5996149 L331.3572,24.7151358 C330.442562,25.63471 329.570905,26.3875577 328.742229,26.9788353 C329.139375,27.9723192 329.655148,28.9039253 330.289549,29.7736534 C330.922231,30.6451004 331.582421,31.155593 332.271838,31.3102878 C332.600214,31.3824786 332.944063,31.3652903 333.29135,31.2535664 C333.638638,31.14528 333.979048,30.8857367 334.31602,30.4783739 C334.652992,30.0675734 334.945263,29.5141101 335.189396,28.8214214 L336.905202,29.2030018 Z" id="Fill-18" fill="#FFFFFF"></path>
                    <path d="M373.351833,50.700479 L371.775286,49.8771593 C372.045207,48.7942962 372.1071,47.7320591 371.969561,46.6904479 C370.661215,47.1304684 369.290978,47.3796988 367.864005,47.4432956 C366.437032,47.5086111 364.789995,47.0496834 362.924615,46.0751066 C360.882153,45.0059941 359.245432,43.5157682 358.017891,41.6078666 C356.790351,39.6999649 356.123284,37.5823659 356.01841,35.2585073 C355.911817,32.9329299 356.444783,30.6537608 357.617307,28.4227191 C358.445983,26.8379575 359.517072,25.4714874 360.837452,24.3250275 C362.154394,23.1820054 363.622628,22.334622 365.243876,21.788034 C366.858247,21.2397271 368.553422,21.0334675 370.325963,21.1640986 C372.101942,21.2964485 373.846976,21.8120976 375.567939,22.7127647 C378.402974,24.1978341 380.263196,26.3498097 381.146888,29.1772856 C381.64203,28.8232065 382.250643,28.2525549 382.964129,27.4601741 L384.470188,28.2473984 L380.359474,36.7452956 L378.755419,35.9030687 C379.204142,34.3337766 379.339962,32.7971423 379.159441,31.2948846 C378.98064,29.790908 378.521601,28.4725651 377.785765,27.3415748 C377.043051,26.2071468 376.109501,25.3442939 374.969642,24.7478598 C373.695682,24.0809536 372.368425,23.8300044 370.986153,23.996731 C369.60388,24.1617387 368.252554,24.8080189 366.930455,25.9355716 C365.603198,27.0648431 364.389411,28.6942943 363.266745,30.8273627 C362.183621,32.9037098 361.516554,34.7566089 361.27586,36.3877788 C361.033446,38.01723 361.079866,39.3699495 361.421995,40.4459373 C361.767564,41.5184874 362.224883,42.3693084 362.807707,42.9949627 C363.39225,43.6206169 363.995704,44.0967329 364.621509,44.4233107 C365.995186,45.1435006 367.423878,45.4202323 368.909305,45.260381 C370.396452,45.1005298 371.783882,44.6416021 373.078473,43.8904733 C374.367907,43.1359067 375.420084,42.2678974 376.235006,41.2847265 L377.840781,42.1286722 L373.351833,50.700479 Z" id="Fill-20" fill="#FFFFFF"></path>
                    <path d="M414.057424,68.1020532 C415.020201,67.0329407 415.838561,65.9414834 416.519382,64.8225249 C417.193326,63.7018475 417.654083,62.5485124 417.88962,61.3642383 C418.125156,60.1782453 418.052948,58.9991277 417.669557,57.8286043 C417.277569,56.656362 416.50047,55.5442787 415.327946,54.4889169 C413.72389,53.0365053 412.104362,52.3060024 410.481395,52.2922518 C408.853271,52.2750634 407.336897,52.7271158 405.928836,53.6398147 C404.522494,54.5507948 403.178045,55.7178806 401.893769,57.1410721 C401.18544,57.9265776 400.494304,58.7911493 399.835833,59.7365059 C399.168766,60.6818626 398.628924,61.7784764 398.214586,63.0263472 C397.801967,64.2724992 397.752109,65.5942797 398.058134,66.9830946 C398.367598,68.3719095 399.20659,69.6816583 400.57167,70.9157784 C401.928154,72.1378668 403.319023,72.8168048 404.73568,72.9457171 C406.150618,73.0797858 407.46584,72.8632132 408.677908,72.3011557 C409.888256,71.7390982 410.919803,71.0859426 411.769109,70.3416891 C412.616697,69.5974356 413.381761,68.8514632 414.057424,68.1020532 M418.553248,72.2564661 C416.992174,73.9907659 415.119917,75.2403556 412.934757,76.0086727 C410.74444,76.7769899 408.433775,76.8904327 405.995886,76.3490011 C403.557998,75.8058507 401.240456,74.5442293 399.038104,72.5606991 C397.239774,70.9398421 395.921113,69.2244494 395.076964,67.4128022 C394.234535,65.601155 393.815039,63.8170092 393.828793,62.0638022 C393.839108,60.3088764 394.158888,58.662237 394.789851,57.1273215 C395.419094,55.592406 396.263243,54.2379677 397.318859,53.0674442 C398.845548,51.3743964 400.686859,50.131682 402.842792,49.3410201 C404.995286,48.5520769 407.288758,48.4162893 409.71977,48.9388138 C412.152501,49.4579005 414.483797,50.7229597 416.713657,52.7305535 C418.745804,54.5628266 420.172777,56.4518212 420.998014,58.3975371 C421.823251,60.3466907 422.173977,62.1841203 422.058788,63.9115448 C421.941879,65.6389693 421.555049,67.2116991 420.898298,68.6297341 C420.239827,70.0477691 419.45929,71.2578257 418.553248,72.2564661" id="Fill-22" fill="#FFFFFF"></path>
                    <path d="M23.9777059,234.101257 C30.2116865,234.101257 34.9121011,232.11257 34.9121011,225.156464 C34.9121011,218.650691 30.1240051,216.120573 23.7077845,216.120573 L12.5928686,216.120573 L12.5928686,234.101257 L23.9777059,234.101257 Z M22.6229412,207.357976 C29.4002031,207.357976 31.6592904,204.014851 31.6592904,199.13681 C31.6592904,194.076574 28.3170791,191.096122 20.9036967,191.096122 L12.5928686,191.096122 L12.5928686,207.357976 L22.6229412,207.357976 Z M1.92839483,244.218292 C0.754150818,244.218292 0.121468832,243.585763 0.121468832,242.411801 L0.121468832,182.783858 C0.121468832,181.609897 0.754150818,180.977368 1.92839483,180.977368 L24.0688258,180.977368 C36.9923869,180.977368 44.4917316,185.857127 44.4917316,197.691274 C44.4917316,208.892891 37.8038704,210.79048 34.6421797,210.79048 L34.6421797,210.972676 C38.8869944,210.972676 48.7365463,214.675036 48.7365463,226.512621 C48.7365463,239.701206 38.3454324,244.218292 26.6889545,244.218292 L1.92839483,244.218292 Z" id="Fill-24" fill="#FFFFFF"></path>
                    <path d="M81.0806936,211.151434 C88.5800382,211.151434 94.0919361,207.71893 94.0919361,201.214876 C94.0919361,194.88958 89.6648815,191.096122 82.0744169,191.096122 L72.766427,191.096122 L72.766427,211.151434 L81.0806936,211.151434 Z M113.249478,242.227887 C113.249478,243.042612 112.886717,243.584044 111.803593,244.036096 C110.80987,244.398769 109.183465,244.668626 106.742137,244.668626 C87.3146742,244.668626 92.8265722,220.54828 79.452569,220.54828 L72.766427,220.54828 L72.766427,242.411801 C72.766427,243.584044 72.1337451,244.216573 70.9577818,244.216573 L62.1019532,244.216573 C60.9277092,244.216573 60.2950272,243.584044 60.2950272,242.411801 L60.2950272,182.873237 C60.2950272,181.699276 60.9277092,180.977368 62.1019532,180.977368 L82.524859,180.977368 C98.0668295,180.977368 106.382815,186.668415 106.382815,200.852203 C106.382815,210.15795 100.325917,215.127089 95.4484201,216.933579 C101.952322,222.263672 102.316802,234.371113 110.539949,234.55159 L111.892994,234.55159 C112.886717,234.55159 113.249478,235.001924 113.249478,236.177604 L113.249478,242.227887 Z" id="Fill-26" fill="#FFFFFF"></path>
                    <path d="M136.378474,242.411801 C136.378474,243.585763 135.745793,244.218292 134.569829,244.218292 L125.714001,244.218292 C124.539757,244.218292 123.907075,243.585763 123.907075,242.411801 L123.907075,182.783858 C123.907075,181.609897 124.539757,180.977368 125.714001,180.977368 L134.569829,180.977368 C135.745793,180.977368 136.378474,181.609897 136.378474,182.783858 L136.378474,242.411801 Z" id="Fill-28" fill="#FFFFFF"></path>
                    <path d="M198.852382,231.748178 C200.117746,233.104335 200.117746,234.0961 199.306263,235.003643 C196.866655,238.162853 189.998273,245.301155 177.526873,245.301155 C160.088576,245.301155 147.976498,234.55159 147.976498,213.2295 C147.976498,191.996789 158.823212,180.977368 175.991588,180.977368 C195.872931,180.977368 199.576184,195.791966 200.208866,201.393634 C200.299986,202.567595 199.849544,203.110746 198.49306,203.380602 L190.809756,204.556282 C189.183351,204.827857 188.732909,204.195328 188.550669,203.110746 C187.919706,199.678242 185.569499,191.90741 176.082708,191.90741 C167.4074,191.90741 160.808939,198.502562 160.808939,213.2295 C160.808939,228.226295 169.214326,234.369394 178.159555,234.369394 C184.758015,234.369394 189.547831,229.943406 191.805199,227.502667 C192.709521,226.510902 193.522724,226.14651 194.516447,227.231092 L198.852382,231.748178 Z" id="Fill-30" fill="#FFFFFF"></path>
                    <path d="M230.654967,208.531937 C239.060354,208.531937 245.746496,201.758026 246.200376,182.783858 C246.200376,181.609897 246.831339,180.977368 248.005583,180.977368 L256.59149,180.977368 C257.676334,180.977368 258.487817,181.248943 258.487817,182.874956 C258.487817,200.128575 251.442353,209.525421 245.026132,212.959644 C254.243002,218.650691 252.886518,234.553309 262.012268,234.553309 L263.368752,234.553309 C264.362476,234.553309 264.725236,234.912545 264.725236,236.44746 L264.725236,242.411801 C264.725236,243.315906 264.092554,243.857338 262.91831,244.218292 C261.833467,244.489867 260.385863,244.668626 258.126776,244.668626 C239.151474,244.668626 244.12009,218.559593 230.837207,218.559593 L224.059945,218.559593 L224.059945,242.411801 C224.059945,243.585763 223.427263,244.218292 222.253019,244.218292 L213.395472,244.218292 C212.221228,244.218292 211.588546,243.585763 211.588546,242.411801 L211.588546,182.783858 C211.588546,181.609897 212.221228,180.977368 213.395472,180.977368 L222.253019,180.977368 C223.427263,180.977368 224.059945,181.609897 224.059945,182.783858 L224.059945,208.531937 L230.654967,208.531937 Z" id="Fill-32" fill="#FFFFFF"></path>
                    <path d="M324.632312,242.411801 C324.632312,243.585763 323.99963,244.218292 322.823666,244.218292 L313.967838,244.218292 C312.791875,244.218292 312.162631,243.585763 312.162631,242.411801 L312.162631,219.101024 L287.671993,219.101024 L287.671993,242.411801 C287.671993,243.585763 287.039311,244.218292 285.865067,244.218292 L277.007519,244.218292 C275.833275,244.218292 275.200593,243.585763 275.200593,242.411801 L275.200593,182.783858 C275.200593,181.609897 275.833275,180.977368 277.007519,180.977368 L285.865067,180.977368 C287.039311,180.977368 287.671993,181.609897 287.671993,182.783858 L287.671993,208.892891 L312.162631,208.892891 L312.162631,182.783858 C312.162631,181.609897 312.791875,180.977368 313.967838,180.977368 L322.823666,180.977368 C323.99963,180.977368 324.632312,181.609897 324.632312,182.783858 L324.632312,242.411801 Z" id="Fill-34" fill="#FFFFFF"></path>
                    <path d="M378.929492,213.2295 C378.929492,197.419699 371.791189,191.909129 363.659162,191.909129 C355.436016,191.909129 348.297713,197.419699 348.297713,213.2295 C348.297713,228.860543 355.344896,234.55159 363.659162,234.55159 C371.88059,234.55159 378.929492,228.860543 378.929492,213.2295 M335.374151,213.2295 C335.374151,191.365978 348.115473,180.977368 363.659162,180.977368 C379.111732,180.977368 391.854773,191.365978 391.854773,213.2295 C391.854773,235.094741 379.022331,245.301155 363.659162,245.301155 C348.206593,245.301155 335.374151,235.094741 335.374151,213.2295" id="Fill-36" fill="#FFFFFF"></path>
                    <path d="M440.46985,182.783858 C440.46985,181.609897 441.102532,180.977368 442.366177,180.977368 L451.130885,180.977368 C452.306849,180.977368 452.939531,181.609897 452.939531,182.783858 L452.939531,218.107541 C452.939531,238.253951 442.096255,244.759724 428.722252,244.759724 C415.257129,244.759724 404.143932,238.253951 404.143932,218.107541 L404.231614,182.783858 C404.231614,181.700995 404.864296,180.977368 406.040259,180.977368 L414.896088,180.977368 C416.072051,180.977368 416.704733,181.609897 416.704733,182.783858 L416.704733,219.013364 C416.704733,227.86534 420.138064,233.738584 428.722252,233.738584 C437.21532,233.738584 440.46985,227.86534 440.46985,219.013364 L440.46985,182.783858 Z" id="Fill-38" fill="#FFFFFF"></path>
                    <path d="M505.74224,197.870032 C504.389195,198.683039 503.665393,198.502562 503.213231,197.870032 C501.856748,195.883064 497.881854,191.365978 489.839228,191.457076 C483.149648,191.365978 479.448114,194.616286 479.448114,198.865235 C479.448114,212.416493 513.332705,202.930269 513.332705,227.139994 C513.332705,236.266983 506.466042,245.301155 489.658708,245.301155 C473.573456,245.301155 466.613954,236.899513 464.628227,233.556388 C464.084945,232.743381 464.265466,231.658799 465.080388,231.027988 L469.866765,226.598562 C470.590567,225.787274 471.67541,225.606797 472.397493,226.510902 C474.477778,229.130399 480.170197,235.003643 489.658708,235.003643 C496.346569,235.003643 500.323181,232.201949 500.323181,227.502667 C500.323181,212.595252 466.074111,223.618111 466.074111,198.954614 C466.074111,189.287912 474.206138,180.977368 488.934906,180.977368 C503.845913,180.977368 509.899373,188.294428 511.888539,191.637553 C512.249581,192.270083 512.521221,193.172469 511.164737,194.076574 L505.74224,197.870032 Z" id="Fill-40" fill="#FFFFFF"></path>
                    <path d="M526.297975,244.216573 C525.214851,244.216573 524.491049,243.584044 524.491049,242.410083 L524.491049,182.782139 C524.491049,181.609897 525.123731,180.977368 526.297975,180.977368 L562.625612,180.977368 C563.712175,180.977368 564.432538,181.609897 564.432538,182.782139 L564.432538,189.196814 C564.432538,190.463592 563.712175,191.096122 562.536211,191.096122 L536.962449,191.096122 L536.962449,207.899407 L556.754392,207.899407 C557.926917,207.899407 558.561318,208.530218 558.561318,209.705898 L558.561318,216.031193 C558.561318,217.205155 557.837516,217.837684 556.663272,217.837684 L536.962449,217.837684 L536.962449,234.099538 L562.625612,234.099538 C563.799856,234.099538 564.432538,234.72863 564.432538,235.995408 L564.432538,242.410083 C564.432538,243.584044 563.712175,244.216573 562.536211,244.216573 L526.297975,244.216573 Z" id="Fill-42" fill="#FFFFFF"></path>
                    <path d="M141.498385,136.720924 L2.05733817,136.720924 C0.987968074,136.720924 0.121468832,135.854634 0.121468832,134.785521 C0.121468832,133.716409 0.987968074,132.850118 2.05733817,132.850118 L141.498385,132.850118 C142.567755,132.850118 143.434254,133.716409 143.434254,134.785521 C143.434254,135.854634 142.567755,136.720924 141.498385,136.720924" id="Fill-44" fill="#FFFFFF"></path>
                    <path d="M562.711574,136.720924 L423.272247,136.720924 C422.201158,136.720924 421.336378,135.854634 421.336378,134.785521 C421.336378,133.716409 422.201158,132.850118 423.272247,132.850118 L562.711574,132.850118 C563.780944,132.850118 564.647444,133.716409 564.647444,134.785521 C564.647444,135.854634 563.780944,136.720924 562.711574,136.720924" id="Fill-46" fill="#FFFFFF"></path>
                    <path d="M31.6816406,277.231866 C32.120048,277.231866 32.3779346,277.489691 32.3779346,277.927993 L32.3779346,280.26904 C32.3779346,280.705623 32.120048,280.961728 31.6455365,280.961728 L23.8212546,280.961728 L23.8212546,302.125686 C23.8212546,302.567426 23.6011913,302.823531 23.162784,302.823531 L19.9804624,302.823531 C19.5076701,302.823531 19.2876068,302.567426 19.2876068,302.125686 L19.2876068,280.961728 L11.13323,280.961728 C10.6948227,280.961728 10.436936,280.705623 10.436936,280.26904 L10.436936,277.927993 C10.436936,277.489691 10.6948227,277.231866 11.1693342,277.231866 L31.6816406,277.231866 Z" id="Fill-48" fill="#FFFFFF"></path>
                    <path d="M49.4311211,302.125686 C49.4311211,302.567426 49.1732344,302.821812 48.7348271,302.821812 L45.5181205,302.821812 C45.0797132,302.821812 44.8218265,302.567426 44.8218265,302.125686 L44.8218265,277.927993 C44.8218265,277.489691 45.0797132,277.231866 45.5181205,277.231866 L48.7348271,277.231866 C49.1732344,277.231866 49.4311211,277.489691 49.4311211,277.927993 L49.4311211,302.125686 Z" id="Fill-50" fill="#FFFFFF"></path>
                    <path d="M62.0142718,277.927993 C62.0142718,277.489691 62.2704392,277.231866 62.7105658,277.231866 L65.7811365,277.231866 C66.5496388,277.231866 66.9158379,277.560163 67.2063902,278.18238 L74.5561606,293.682792 L74.6300881,293.682792 L82.1277135,278.220194 C82.4560892,277.525786 82.7844649,277.231866 83.5873521,277.231866 L86.3673705,277.231866 C86.8074971,277.231866 87.0619453,277.489691 87.0619453,277.927993 L87.0619453,302.125686 C87.0619453,302.567426 86.8074971,302.821812 86.3673705,302.821812 L83.2228722,302.821812 C82.7844649,302.821812 82.5265782,302.567426 82.5265782,302.125686 L82.5265782,286.1165 L76.6416042,298.289257 C76.2031968,299.238051 75.4707987,299.568067 74.4839523,299.568067 C73.5693142,299.568067 72.6924995,299.16586 72.2901963,298.251443 L66.6235663,286.150877 L66.6235663,302.125686 C66.6235663,302.567426 66.3656797,302.821812 65.9272723,302.821812 L62.7105658,302.821812 C62.2704392,302.821812 62.0142718,302.567426 62.0142718,302.125686 L62.0142718,277.927993 Z" id="Fill-52" fill="#FFFFFF"></path>
                    <path d="M109.346793,299.093669 C111.980675,299.093669 114.210536,298.253161 114.210536,295.217707 C114.210536,292.369605 112.088988,291.309087 109.308969,291.309087 L104.446946,291.309087 L104.446946,299.093669 L109.346793,299.093669 Z M108.908385,288.019246 C111.796716,288.019246 112.747458,286.592616 112.747458,284.469861 C112.747458,282.280071 111.318766,280.961728 108.175987,280.961728 L104.446946,280.961728 L104.446946,288.019246 L108.908385,288.019246 Z M100.533945,302.823531 C100.095538,302.823531 99.8376513,302.567426 99.8376513,302.127405 L99.8376513,277.929712 C99.8376513,277.49141 100.095538,277.231866 100.533945,277.231866 L109.198938,277.231866 C114.430599,277.231866 117.463346,279.242898 117.463346,283.961087 C117.463346,288.565834 114.758975,289.332432 113.514242,289.332432 L113.514242,289.406342 C115.197382,289.406342 119.180872,290.831252 119.180872,295.729919 C119.180872,301.030791 114.939495,302.823531 110.187503,302.823531 L100.533945,302.823531 Z" id="Fill-54" fill="#FFFFFF"></path>
                    <path d="M133.199591,302.823531 C132.761184,302.823531 132.503297,302.569144 132.503297,302.127405 L132.503297,277.929712 C132.503297,277.49141 132.761184,277.231866 133.199591,277.231866 L147.752996,277.231866 C148.191404,277.231866 148.445852,277.49141 148.445852,277.929712 L148.445852,280.26904 C148.445852,280.741718 148.191404,280.961728 147.752996,280.961728 L137.112592,280.961728 L137.112592,288.273633 L145.483594,288.273633 C145.925439,288.273633 146.179888,288.531457 146.179888,288.96804 L146.179888,291.309087 C146.179888,291.747389 145.925439,291.967399 145.449209,291.967399 L137.112592,291.967399 L137.112592,299.093669 L147.752996,299.093669 C148.191404,299.093669 148.445852,299.31368 148.445852,299.786358 L148.445852,302.127405 C148.445852,302.569144 148.1553,302.823531 147.752996,302.823531 L133.199591,302.823531 Z" id="Fill-56" fill="#FFFFFF"></path>
                    <path d="M170.030967,289.552442 C173.14108,289.552442 175.480972,288.087999 175.480972,285.310369 C175.480972,282.642744 173.615592,280.961728 170.397166,280.961728 L166.339749,280.961728 L166.339749,289.552442 L170.030967,289.552442 Z M183.014702,302.055214 C183.014702,302.347415 182.865127,302.567426 182.42672,302.749622 C182.024417,302.897441 181.441593,302.967913 180.563059,302.967913 C172.957121,303.005727 174.89471,293.026198 169.448143,293.026198 L166.339749,293.026198 L166.339749,302.125686 C166.339749,302.567426 166.081862,302.823531 165.643455,302.823531 L162.426748,302.823531 C161.988341,302.823531 161.730454,302.567426 161.730454,302.125686 L161.730454,277.927993 C161.730454,277.489691 161.988341,277.231866 162.426748,277.231866 L170.581125,277.231866 C176.687882,277.231866 180.012901,279.536818 180.012901,285.165987 C180.012901,288.96804 177.60252,290.979071 175.480972,291.711293 C178.259271,293.756701 178.479334,299.23977 181.916104,299.31368 L182.462824,299.31368 C182.830742,299.31368 183.014702,299.495876 183.014702,299.934178 L183.014702,302.055214 Z" id="Fill-58" fill="#FFFFFF"></path>
                    <path d="M209.320862,302.125686 C209.320862,302.567426 209.064695,302.821812 208.624568,302.821812 L205.407861,302.821812 C204.969454,302.821812 204.711567,302.567426 204.711567,302.125686 L204.711567,277.927993 C204.711567,277.489691 204.969454,277.231866 205.407861,277.231866 L219.961266,277.231866 C220.399674,277.231866 220.654122,277.489691 220.654122,277.927993 L220.654122,280.267321 C220.654122,280.741718 220.399674,280.961728 219.961266,280.961728 L209.320862,280.961728 L209.320862,288.490205 L217.693583,288.490205 C218.133709,288.490205 218.388158,288.710215 218.388158,289.18805 L218.388158,291.489564 C218.388158,291.96568 218.133709,292.183972 217.657479,292.183972 L209.320862,292.183972 L209.320862,302.125686 Z" id="Fill-60" fill="#FFFFFF"></path>
                    <path d="M238.548019,302.125686 C238.548019,302.567426 238.290132,302.821812 237.851725,302.821812 L234.635018,302.821812 C234.196611,302.821812 233.938724,302.567426 233.938724,302.125686 L233.938724,277.927993 C233.938724,277.489691 234.196611,277.231866 234.635018,277.231866 L237.851725,277.231866 C238.290132,277.231866 238.548019,277.489691 238.548019,277.927993 L238.548019,302.125686 Z" id="Fill-62" fill="#FFFFFF"></path>
                    <path d="M259.433401,289.552442 C262.541796,289.552442 264.879968,288.087999 264.879968,285.310369 C264.879968,282.642744 263.014588,280.961728 259.797881,280.961728 L255.740464,280.961728 L255.740464,289.552442 L259.433401,289.552442 Z M272.413698,302.055214 C272.413698,302.347415 272.265843,302.567426 271.827435,302.749622 C271.425132,302.897441 270.840589,302.967913 269.962055,302.967913 C262.357836,303.005727 264.295425,293.026198 258.847139,293.026198 L255.740464,293.026198 L255.740464,302.125686 C255.740464,302.567426 255.482578,302.823531 255.04417,302.823531 L251.827464,302.823531 C251.387337,302.823531 251.13117,302.567426 251.13117,302.125686 L251.13117,277.927993 C251.13117,277.489691 251.387337,277.231866 251.827464,277.231866 L259.98184,277.231866 C266.086878,277.231866 269.413616,279.536818 269.413616,285.165987 C269.413616,288.96804 267.001516,290.979071 264.879968,291.711293 C267.659987,293.756701 267.878331,299.23977 271.3151,299.31368 L271.86182,299.31368 C272.229738,299.31368 272.413698,299.495876 272.413698,299.934178 L272.413698,302.055214 Z" id="Fill-64" fill="#FFFFFF"></path>
                    <path d="M282.773865,302.823531 C282.335458,302.823531 282.077571,302.569144 282.077571,302.127405 L282.077571,277.929712 C282.077571,277.49141 282.335458,277.231866 282.773865,277.231866 L297.32727,277.231866 C297.765677,277.231866 298.021845,277.49141 298.021845,277.929712 L298.021845,280.26904 C298.021845,280.741718 297.765677,280.961728 297.32727,280.961728 L286.686866,280.961728 L286.686866,288.273633 L295.061306,288.273633 C295.499713,288.273633 295.754161,288.531457 295.754161,288.96804 L295.754161,291.309087 C295.754161,291.747389 295.499713,291.967399 295.023482,291.967399 L286.686866,291.967399 L286.686866,299.093669 L297.32727,299.093669 C297.765677,299.093669 298.021845,299.31368 298.021845,299.786358 L298.021845,302.127405 C298.021845,302.569144 297.731293,302.823531 297.32727,302.823531 L282.773865,302.823531 Z" id="Fill-66" fill="#FFFFFF"></path>
                    <path d="M319.718711,299.093669 C323.846617,299.093669 326.664459,296.132125 326.664459,290.39295 C326.664459,284.361575 323.958368,280.961728 318.547905,280.961728 L315.914023,280.961728 L315.914023,299.093669 L319.718711,299.093669 Z M312.002741,302.823531 C311.564334,302.823531 311.304728,302.567426 311.304728,302.127405 L311.304728,277.929712 C311.304728,277.49141 311.564334,277.231866 312.002741,277.231866 L318.618394,277.231866 C325.345798,277.231866 331.234211,280.889537 331.234211,290.429046 C331.234211,299.495876 326.005988,302.823531 319.754815,302.823531 L312.002741,302.823531 Z" id="Fill-68" fill="#FFFFFF"></path>
                    <path d="M363.647128,288.565834 C367.011689,288.565834 369.936124,285.860395 370.154468,277.929712 C370.154468,277.49141 370.414074,277.231866 370.850762,277.231866 L373.99698,277.231866 C374.397564,277.231866 374.689835,277.379686 374.689835,277.929712 C374.689835,285.165987 371.655369,288.89413 369.097133,290.210754 C372.898382,292.403982 372.568287,299.31368 376.262944,299.31368 L376.811383,299.31368 C377.175863,299.31368 377.323718,299.458062 377.323718,300.008087 L377.323718,302.127405 C377.323718,302.459139 377.103655,302.677431 376.665247,302.823531 C376.262944,302.931818 375.750609,302.967913 374.873794,302.967913 C367.413992,302.967913 369.169341,292.257881 363.75544,292.257881 L360.612661,292.257881 L360.612661,302.127405 C360.612661,302.567426 360.356494,302.823531 359.918086,302.823531 L356.70138,302.823531 C356.261253,302.823531 356.005086,302.567426 356.005086,302.127405 L356.005086,277.929712 C356.005086,277.49141 356.261253,277.231866 356.70138,277.231866 L359.918086,277.231866 C360.356494,277.231866 360.612661,277.49141 360.612661,277.929712 L360.612661,288.565834 L363.647128,288.565834 Z" id="Fill-70" fill="#FFFFFF"></path>
                    <path d="M394.999271,302.125686 C394.999271,302.567426 394.743103,302.821812 394.304696,302.821812 L391.08799,302.821812 C390.649582,302.821812 390.389976,302.567426 390.389976,302.125686 L390.389976,277.927993 C390.389976,277.489691 390.649582,277.231866 391.08799,277.231866 L394.304696,277.231866 C394.743103,277.231866 394.999271,277.489691 394.999271,277.927993 L394.999271,302.125686 Z" id="Fill-72" fill="#FFFFFF"></path>
                    <path d="M428.825407,277.231866 C429.263814,277.231866 429.521701,277.489691 429.521701,277.927993 L429.521701,280.26904 C429.521701,280.705623 429.263814,280.961728 428.789303,280.961728 L420.965021,280.961728 L420.965021,302.125686 C420.965021,302.567426 420.744958,302.823531 420.30655,302.823531 L417.124229,302.823531 C416.651436,302.823531 416.431373,302.567426 416.431373,302.125686 L416.431373,280.961728 L408.276996,280.961728 C407.838589,280.961728 407.582422,280.705623 407.582422,280.26904 L407.582422,277.927993 C407.582422,277.489691 407.838589,277.231866 408.311381,277.231866 L428.825407,277.231866 Z" id="Fill-74" fill="#FFFFFF"></path>
                    <path d="M458.968921,297.959241 C459.407328,298.397543 459.369505,298.765373 459.116776,299.093669 C458.164315,300.338103 455.386016,303.260114 450.377856,303.260114 C443.466493,303.260114 438.528823,299.01976 438.528823,290.319041 C438.528823,281.62004 442.990263,277.231866 449.75549,277.231866 C457.617595,277.231866 459.116776,283.11886 459.369505,285.312088 C459.407328,285.714294 459.261193,285.966962 458.714473,286.078686 L455.934455,286.518707 C455.312088,286.628712 455.167671,286.370887 455.093744,285.966962 C454.835857,284.579866 453.885115,281.253929 449.791594,281.253929 C446.134761,281.253929 443.282534,283.959368 443.282534,290.319041 C443.282534,296.754341 446.827616,299.238051 450.5962,299.238051 C453.412323,299.238051 455.386016,297.374839 456.298934,296.386512 C456.629029,295.987743 456.957405,295.839924 457.323604,296.24213 L458.968921,297.959241 Z" id="Fill-76" fill="#FFFFFF"></path>
                    <path d="M490.866065,302.125686 C490.866065,302.567426 490.611617,302.821812 490.173209,302.821812 L486.956503,302.821812 C486.514657,302.821812 486.296313,302.567426 486.296313,302.125686 L486.296313,292.403982 L475.802044,292.403982 L475.802044,302.125686 C475.802044,302.567426 475.545877,302.821812 475.10747,302.821812 L471.890763,302.821812 C471.450636,302.821812 471.194469,302.567426 471.194469,302.125686 L471.194469,277.927993 C471.194469,277.489691 471.450636,277.231866 471.890763,277.231866 L475.10747,277.231866 C475.545877,277.231866 475.802044,277.489691 475.802044,277.927993 L475.802044,288.638025 L486.296313,288.638025 L486.296313,277.927993 C486.296313,277.489691 486.514657,277.231866 486.956503,277.231866 L490.173209,277.231866 C490.611617,277.231866 490.866065,277.489691 490.866065,277.927993 L490.866065,302.125686 Z" id="Fill-78" fill="#FFFFFF"></path>
                    <path d="M504.556409,302.823531 C504.116282,302.823531 503.860115,302.569144 503.860115,302.127405 L503.860115,277.929712 C503.860115,277.49141 504.116282,277.231866 504.556409,277.231866 L519.109814,277.231866 C519.548221,277.231866 519.802669,277.49141 519.802669,277.929712 L519.802669,280.26904 C519.802669,280.741718 519.548221,280.961728 519.109814,280.961728 L508.46769,280.961728 L508.46769,288.273633 L516.840411,288.273633 C517.280538,288.273633 517.536705,288.531457 517.536705,288.96804 L517.536705,291.309087 C517.536705,291.747389 517.280538,291.967399 516.804307,291.967399 L508.46769,291.967399 L508.46769,299.093669 L519.109814,299.093669 C519.548221,299.093669 519.802669,299.31368 519.802669,299.786358 L519.802669,302.127405 C519.802669,302.569144 519.512117,302.823531 519.109814,302.823531 L504.556409,302.823531 Z" id="Fill-80" fill="#FFFFFF"></path>
                    <path d="M548.701451,302.823531 C547.934668,302.823531 547.530645,302.459139 547.128342,301.763013 L537.696566,285.604289 L537.696566,302.127405 C537.696566,302.569144 537.43868,302.823531 537.000272,302.823531 L533.783566,302.823531 C533.345159,302.823531 533.087272,302.569144 533.087272,302.127405 L533.087272,277.929712 C533.087272,277.49141 533.345159,277.231866 533.783566,277.231866 L537.000272,277.231866 C537.806598,277.231866 538.245005,277.783611 538.573381,278.40239 L548.008595,294.997697 L548.008595,277.929712 C548.008595,277.49141 548.226939,277.231866 548.701451,277.231866 L551.883772,277.231866 C552.360003,277.231866 552.578347,277.49141 552.578347,277.929712 L552.578347,302.127405 C552.578347,302.569144 552.360003,302.823531 551.883772,302.823531 L548.701451,302.823531 Z" id="Fill-82" fill="#FFFFFF"></path>
                </g>
            </g>
        </g>
    </g>
</svg>