<?xml version="1.0" encoding="UTF-8"?>
<svg width="71px" height="52px" viewBox="0 0 71 52" version="1.1" xmlns="http://www.w3.org/2000/svg" xmlns:xlink="http://www.w3.org/1999/xlink">
    <!-- Generator: Sketch 46.1 (44463) - http://www.bohemiancoding.com/sketch -->
    <title>Page 1</title>
    <desc>Created with Sketch.</desc>
    <defs></defs>
    <g id="Welcome" stroke="none" stroke-width="1" fill="none" fill-rule="evenodd">
        <g id="Duft-&amp;-Co.-Brickhouse" transform="translate(-47.000000, -27.000000)" fill="#FEFEFE">
            <g id="Group-29" transform="translate(0.000000, -1.000000)">
                <g id="Group-5">
                    <g id="Group-2" transform="translate(46.000000, 27.822581)">
                        <g id="Page-1" transform="translate(0.504004, 0.882135)">
                            <polygon id="Fill-1" points="18.9779438 8.19578519 0.686355137 16.9930896 0.686355137 26.708112 18.9779438 17.9108075"></polygon>
                            <polygon id="Fill-2" points="11.1117372 51.1756787 18.9778901 47.4214689 18.9778901 37.7355529 11.1117372 41.5178739"></polygon>
                            <polygon id="Fill-3" points="33.5041867 16.0048949 11.1213938 26.7386362 11.1213938 36.4536585 33.5041867 25.7201659"></polygon>
                            <polygon id="Fill-4" points="36.1195317 29.557341 36.1179222 29.5580873 36.1163128 29.557341 36.1163128 29.5588336 24.2155543 35.2350516 24.2155543 44.9503227 36.1179222 39.2731096 48.0202901 44.9503227 48.0202901 35.2350516 36.1195317 29.5588336"></polygon>
                            <polygon id="Fill-5" points="53.2579812 8.30743381 53.2579812 18.0227049 71.3690439 26.7456267 71.3690439 17.0306044"></polygon>
                            <polygon id="Fill-6" points="53.2579812 47.4516449 61.0790697 51.2075961 61.0790697 41.4925738 53.2579812 37.7366226"></polygon>
                            <polygon id="Fill-7" points="48.0202365 15.5384484 48.0202365 5.82317732 36.119478 0.0352609839 36.119478 0.0337683552 36.1178686 0.0345146696 36.1165274 0.0337683552 36.1165274 0.0352609839 24.2155007 5.71172772 24.2155007 15.42675 36.1178686 9.74953697"></polygon>
                            <polygon id="Fill-8" points="38.8277415 25.8090022 61.1147725 36.5258271 61.1147725 26.8108048 38.8277415 16.0937311"></polygon>
                        </g>
                    </g>
                </g>
            </g>
        </g>
    </g>
</svg>