<?xml version="1.0" encoding="UTF-8"?>
<svg width="125px" height="127px" viewBox="0 0 125 127" version="1.1" xmlns="http://www.w3.org/2000/svg" xmlns:xlink="http://www.w3.org/1999/xlink">
    <!-- Generator: Sketch 46.1 (44463) - http://www.bohemiancoding.com/sketch -->
    <title>Page 1</title>
    <desc>Created with Sketch.</desc>
    <defs></defs>
    <g id="Welcome" stroke="none" stroke-width="1" fill="none" fill-rule="evenodd">
        <g id="Duft-&amp;-Co.-Brickhouse" transform="translate(-129.000000, -10166.000000)" fill="#FEFEFE">
            <g id="Page-1" transform="translate(129.000000, 10166.000000)">
                <polygon id="Fill-1" points="44.7710682 43.0235314 26.2523215 52.6271219 26.2523215 63.2325404 44.7710682 53.6289499"></polygon>
                <polygon id="Fill-2" points="36.8071734 89.9425961 44.7710139 85.8443074 44.7710139 75.2706627 36.8071734 79.399639"></polygon>
                <polygon id="Fill-3" points="59.4777085 51.5483576 36.81695 63.2658623 36.81695 73.8712808 59.4777085 62.1540477"></polygon>
                <polygon id="Fill-4" points="62.1255327 66.3429056 62.1239032 66.3437203 62.1222738 66.3429056 62.1222738 66.344535 50.0737232 72.5409868 50.0737232 83.1466769 62.1239032 76.9491388 74.1740833 83.1466769 74.1740833 72.5409868 62.1255327 66.344535"></polygon>
                <polygon id="Fill-5" points="79.4768197 43.1454128 79.4768197 53.7511029 97.8127986 63.2734934 97.8127986 52.6680749"></polygon>
                <polygon id="Fill-6" points="79.4768197 85.877249 87.3950361 89.9774387 87.3950361 79.3720202 79.4768197 75.2718305"></polygon>
                <polygon id="Fill-7" points="74.174029 51.0391606 74.174029 40.4334705 62.1254783 34.115083 62.1254783 34.1134536 62.1238489 34.1142683 62.1224911 34.1134536 62.1224911 34.115083 50.0736689 40.3118064 50.0736689 50.9172249 62.1238489 44.7196868"></polygon>
                <polygon id="Fill-8" points="64.867375 62.2510259 87.4311823 73.9500638 87.4311823 63.3446452 64.867375 51.6453358"></polygon>
                <g id="Group-69" transform="translate(0.000000, 0.057573)">
                    <path d="M9.21320615,68.3033003 C9.21537873,68.4466902 9.13825236,68.5262607 8.99459092,68.5287048 L8.22332726,68.5409255 C8.0799374,68.5433697 8.00009531,68.4534795 7.99792274,68.3090033 L7.95202712,65.460216 L0.242106182,65.5845959 C0.0976300309,65.5867685 0.0180595189,65.5096421 0.0158869452,65.3526736 L0.000135785857,64.3470436 C-0.00339464641,64.1900751 0.0740032918,64.1105046 0.217393156,64.108332 L7.92840038,63.9836806 L7.88033219,61.0308814 C7.87788804,60.88722 7.95528598,60.8076494 8.09867584,60.8043906 L8.87021108,60.7918983 C9.01360094,60.7897257 9.09317146,60.8804307 9.09534403,61.0240921 L9.21320615,68.3033003 Z" id="Fill-9"></path>
                    <path d="M1.0258893,74.2394234 C0.884672013,74.260606 0.795053347,74.1946141 0.771426608,74.0400898 L0.620161164,73.0309293 C0.596534425,72.8761334 0.662797923,72.7865148 0.805101501,72.7650606 L9.41501109,71.4704782 C9.55622838,71.4492957 9.64584705,71.5152876 9.66947379,71.6698119 L9.82073923,72.6789724 C9.84436597,72.8334967 9.77837405,72.9231153 9.6357989,72.9445695 L1.0258893,74.2394234 Z" id="Fill-11"></path>
                    <path d="M10.2053663,76.6676548 C10.3411521,76.6228454 10.4408189,76.6733578 10.4888871,76.8210928 L10.7995652,77.7653476 C10.8769631,78.0018866 10.8063545,78.1621139 10.6572616,78.2943693 L6.04162874,82.6734632 L6.04950432,82.6981762 L12.3746811,83.5232111 C12.5900375,83.5490104 12.7301685,83.6397153 12.804036,83.8640336 L13.090001,84.7327915 C13.1380692,84.8818844 13.0889147,84.9804649 12.9520426,85.0263605 L4.68078289,87.7439786 C4.54391075,87.788788 4.44533022,87.7396335 4.39590416,87.5905406 L4.08196726,86.6340651 C4.03607164,86.4974645 4.08658398,86.3975261 4.22318455,86.3527168 L9.94873098,84.4715395 L4.82987576,83.8013005 C4.4944847,83.7461715 4.32176509,83.5544418 4.22454241,83.2565277 C4.12569031,82.9591566 4.16506821,82.657712 4.39699045,82.4437135 L8.12458378,78.9200705 L2.39930893,80.8023341 C2.26243678,80.8471434 2.16276997,80.7966311 2.1144302,80.6475382 L1.79614815,79.6791135 C1.75133882,79.5422413 1.79723444,79.4311685 1.93383501,79.3863592 L10.2053663,76.6676548 Z" id="Fill-13"></path>
                    <path d="M13.0304725,92.9537289 C13.5787758,93.8898366 14.2357077,93.8998848 14.912736,93.5031185 C15.6348452,93.0805529 15.8108237,92.3717507 15.2098355,91.3449381 L14.4768634,90.0927209 L12.1527527,91.4538383 L13.0304725,92.9537289 Z M9.62251904,95.1005033 C10.1178658,95.9469923 10.8310132,96.5436354 11.8344706,95.9562258 C12.7602586,95.4147118 12.7064874,94.5220556 12.1717627,93.6084883 L11.2277794,91.9953523 L8.67853577,93.4873673 L9.62251904,95.1005033 Z M6.99451957,93.0186346 C6.91603535,92.8831203 6.94400723,92.7755779 7.06730079,92.7038829 L14.5808754,88.3046928 C14.7052552,88.2327263 14.8119829,88.2609697 14.8915534,88.3953977 L16.4107256,90.990537 C17.3544373,92.6039445 17.2759531,93.8920092 15.8320063,94.7374119 C14.3994655,95.5760254 13.662963,94.8865048 13.4508655,94.525586 L13.4285966,94.5391646 C13.7256961,95.0467321 14.0103032,96.5153919 12.4867859,97.4066903 C10.8511095,98.3653384 9.53045623,97.350475 8.67853577,95.8953937 L6.99451957,93.0186346 Z" id="Fill-15"></path>
                    <path d="M13.3309394,102.727405 C13.236704,102.61769 13.236704,102.496297 13.3466906,102.403691 L19.9733119,96.7454946 C20.0822122,96.6523455 20.193285,96.6599496 20.2951244,96.7802558 L23.6517508,100.709355 C23.7448999,100.819342 23.7356665,100.930415 23.6259515,101.023564 L23.0396282,101.524342 C22.9296416,101.618577 22.8109648,101.599839 22.7178157,101.489581 L20.1854095,98.5256472 L18.0663354,100.334858 L20.0968771,102.71274 C20.1987165,102.831688 20.181879,102.932713 20.0621159,103.034552 L19.4847544,103.527727 C19.3758542,103.620876 19.2650529,103.611914 19.162942,103.492965 L17.1416337,101.124317 L15.0719857,102.892249 L17.6111812,105.866502 C17.7054166,105.976489 17.6964547,106.08729 17.5864682,106.180439 L17.0004164,106.68176 C16.8904299,106.775724 16.7714814,106.756714 16.6775176,106.646999 L13.3309394,102.727405 Z" id="Fill-17"></path>
                    <path d="M25.5295334,108.430411 C26.4219181,109.156865 27.4375963,109.275542 28.0980587,108.464086 C28.7324502,107.682774 28.6012811,106.766762 27.6684322,106.007719 L26.461296,105.026802 L24.4231502,107.531237 L25.5295334,108.430411 Z M26.3244238,114.808272 C26.2584319,114.888929 26.1584935,114.909026 26.0140173,114.858785 C25.8871934,114.8061 25.7101286,114.712951 25.4868966,114.531541 C23.4587991,112.8812 26.219054,110.441671 24.6876611,109.195971 L23.7143481,108.403525 L21.593373,111.01007 C21.502668,111.12223 21.3926815,111.133364 21.2704742,111.034783 L20.4802005,110.390072 C20.3579933,110.291492 20.3468588,110.181505 20.4375638,110.069346 L25.9241271,103.324863 C26.0151036,103.214061 26.1337805,103.191521 26.2549015,103.291188 L28.4758149,105.097683 C30.1294151,106.442777 30.5408462,107.822905 29.2785809,109.374394 C28.4285614,110.41913 27.2974653,110.441671 26.5036611,110.133437 C26.8770722,111.330797 25.6158932,113.068312 26.5644932,113.891175 L26.7168449,114.014468 C26.8189559,114.097569 26.8276462,114.18936 26.7290657,114.310481 L26.3244238,114.808272 Z" id="Fill-19"></path>
                    <path d="M36.3424056,120.464161 C36.2842892,120.596416 36.169686,120.631177 36.0374305,120.572789 L35.1026807,120.163802 C34.9715116,120.105414 34.9185551,119.996514 34.976943,119.865617 L38.4769592,111.885482 C38.5342609,111.753498 38.6374581,111.712762 38.7819343,111.775767 L43.5140714,113.851933 C43.6463268,113.910321 43.686791,114.013518 43.6284031,114.144415 L43.3190829,114.852131 C43.260695,114.983029 43.145277,115.019148 43.0141079,114.96076 L39.4432114,113.394606 L38.2977219,116.006854 L41.1609025,117.263417 C41.3042924,117.32615 41.3336221,117.423915 41.2698027,117.568392 L40.9702591,118.251394 C40.9075261,118.394784 40.8043288,118.434977 40.660939,118.372244 L37.8088928,117.121113 L36.3424056,120.464161 Z" id="Fill-21"></path>
                    <path d="M45.6497113,123.835208 C45.6103334,123.974524 45.5131108,124.028295 45.36266,123.984572 L44.3806567,123.703224 C44.2304776,123.660315 44.1767064,123.562821 44.2158127,123.424863 L46.6194939,115.048233 C46.6586002,114.909188 46.7563661,114.855417 46.9076315,114.89914 L47.8885485,115.180489 C48.0387277,115.224212 48.0927705,115.32062 48.0533926,115.459664 L45.6497113,123.835208 Z" id="Fill-23"></path>
                    <path d="M54.065773,120.992178 C55.2071889,121.14127 56.1329769,120.709743 56.2698491,119.672882 C56.3999319,118.67377 55.8079056,117.964153 54.6151626,117.807185 L53.0723637,117.605407 L52.653057,120.807237 L54.065773,120.992178 Z M58.0893795,126.002404 C58.0760725,126.106688 58.0008472,126.17621 57.8517543,126.208527 C57.7170547,126.231068 57.5174495,126.244646 57.2328424,126.206354 C54.6398756,125.866618 55.7082388,122.342161 53.7507499,122.085254 L52.5064083,121.921768 L52.0702641,125.253409 C52.0512541,125.395984 51.963808,125.463063 51.8079258,125.442966 L50.7965928,125.310439 C50.6409822,125.290343 50.5736324,125.201811 50.5926424,125.059779 L51.7226523,116.439278 C51.740576,116.297246 51.8304663,116.216317 51.9860769,116.236414 L54.824816,116.608739 C56.9379155,116.885742 58.0119816,117.844118 57.7518159,119.827407 C57.5769237,121.162725 56.6264227,121.775934 55.7888956,121.930458 C56.7361377,122.75332 56.5737378,124.894663 57.8134627,125.096441 L58.0076365,125.121154 C58.1377193,125.139349 58.1936631,125.211859 58.1732952,125.367741 L58.0893795,126.002404 Z" id="Fill-25"></path>
                    <path d="M62.7430867,126.280412 C62.5996969,126.28693 62.5041036,126.21442 62.4975859,126.069672 L62.0657869,117.366614 C62.0581829,117.222952 62.1331367,117.141481 62.2901051,117.133334 L67.4515971,116.876698 C67.594987,116.870181 67.6770016,116.944048 67.6846056,117.088524 L67.7228972,117.858702 C67.729415,118.003178 67.6422404,118.086279 67.4988506,118.09334 L63.6039691,118.286156 L63.7430138,121.069766 L66.8652738,120.91497 C67.0222422,120.907094 67.0917646,120.982048 67.0996402,121.139016 L67.1365739,121.896973 C67.1444495,122.040635 67.0694957,122.123192 66.9125272,122.130253 L63.8022164,122.284777 L63.9380023,125.003482 L67.8451045,124.80958 C67.9884944,124.801704 68.070509,124.876929 68.0783846,125.020319 L68.1164046,125.791583 C68.1231939,125.935244 68.0354763,126.018074 67.8920864,126.024863 L62.7430867,126.280412 Z" id="Fill-27"></path>
                    <path d="M75.5560031,123.508996 C77.0580662,123.157039 77.8429085,121.858926 77.3519068,119.757776 C76.8361922,117.555057 75.5158105,116.614333 73.6050319,117.060525 L72.5983156,117.295978 L74.12998,123.842214 L75.5560031,123.508996 Z M73.1838242,125.31196 C73.0312009,125.347808 72.9369655,125.28942 72.9043769,125.149289 L70.9213602,116.668376 C70.8879569,116.527973 70.9471596,116.433738 71.0995113,116.39789 L73.3530134,115.871041 C75.6972204,115.322738 78.0224174,116.135824 78.7936811,119.43379 C79.5255668,122.566099 78.0357244,124.177334 75.8449554,124.689789 L73.1838242,125.31196 Z" id="Fill-29"></path>
                    <path d="M89.5952559,114.070548 C90.6592738,113.478522 91.1459303,112.086173 89.7734069,109.494293 C89.7019835,109.369913 89.7310417,109.262371 89.8679139,109.184973 L90.7323266,108.691527 C90.8567065,108.62119 90.9688656,108.632324 91.0527812,108.780331 C92.3813101,111.110959 92.0336983,112.800407 91.4585094,113.640107 C93.0336253,113.601 94.2904592,115.912619 95.4497988,115.251342 L95.6089399,115.160365 C95.734406,115.08867 95.8118039,115.119901 95.8970775,115.267908 L96.2264939,115.847442 C96.2791789,115.938418 96.2490344,116.045961 96.154799,116.144813 C96.0426399,116.238776 95.9082119,116.345233 95.6469599,116.494597 C93.4070364,117.771256 91.941907,114.117801 90.2478427,115.084054 L89.1458047,115.711927 L90.9406221,118.861073 C91.0125886,118.986811 90.981901,119.092995 90.8463867,119.171479 L89.9597051,119.677417 C89.8228329,119.754544 89.7163768,119.725214 89.6446819,119.599748 L85.3283211,112.029143 C85.2566262,111.903677 85.2859559,111.796949 85.4228281,111.718737 L86.3092381,111.21307 C86.4461103,111.135401 86.552838,111.164731 86.6245329,111.290468 L88.5491616,114.665833 L89.5952559,114.070548 Z" id="Fill-31"></path>
                    <path d="M100.722282,112.382241 C100.810543,112.495486 100.797236,112.605201 100.673942,112.702967 L99.8722627,113.331927 C99.7489692,113.42915 99.6392542,113.416114 99.5496355,113.302869 L94.1717009,106.455188 C94.0831685,106.341943 94.0967471,106.23087 94.2200407,106.134462 L95.0214488,105.504416 C95.1447423,105.407736 95.2544573,105.421315 95.3443475,105.533474 L100.722282,112.382241 Z" id="Fill-33"></path>
                    <path d="M102.740223,98.0894487 C102.838803,97.9851652 102.949605,97.9829926 103.053888,98.0818447 L103.61224,98.6154831 C103.716523,98.71515 103.709734,98.8349131 103.610067,98.9391966 L101.640358,101.000969 L107.221156,106.333823 C107.32544,106.433761 107.327612,106.544834 107.218712,106.658079 L106.522674,107.386706 C106.413774,107.499952 106.302972,107.502124 106.199775,107.403544 L100.618976,102.070418 L98.5751276,104.208231 C98.4765471,104.312515 98.3657458,104.314959 98.2614623,104.215292 L97.7031108,103.681653 C97.5985557,103.583073 97.6056166,103.46168 97.7052834,103.358483 L102.740223,98.0894487 Z" id="Fill-35"></path>
                    <path d="M114.269311,94.4012333 C114.458868,94.3528935 114.549573,94.4292052 114.596827,94.5704225 C114.766016,95.0739164 115.107925,96.4773991 114.120218,97.9729445 C112.785172,99.9909939 110.584355,100.637878 107.954183,98.899004 C105.324282,97.1601303 104.927516,94.9840262 106.234591,93.0086136 C107.750232,90.717363 109.780774,91.4169317 110.453185,91.7520512 C110.569961,91.813698 110.624819,91.8965274 110.548507,92.0814677 L110.185416,92.8921093 C110.102315,93.0881841 110.008351,93.0895419 109.891575,93.0276236 C109.416325,92.8228585 108.173069,92.4247344 107.321964,93.7117127 C106.570796,94.8474256 106.794028,96.312555 108.79171,97.6332083 C110.820894,98.9753157 112.310736,98.3596626 113.082271,97.1924474 C113.667237,96.3079383 113.485827,95.325935 113.360089,94.8506845 C113.305232,94.6736197 113.312021,94.5679783 113.493702,94.5313162 L114.269311,94.4012333 Z" id="Fill-37"></path>
                    <path d="M120.491318,84.4424542 C120.624931,84.4973117 120.667296,84.5994226 120.613525,84.7327643 L120.221376,85.6892399 C120.167604,85.8225816 120.064407,85.8649468 119.93188,85.8100893 L116.614903,84.4525023 L115.118,88.1073144 L118.434434,89.4659877 C118.567775,89.5208452 118.610141,89.6229562 118.550666,89.7687902 L118.16422,90.7127735 C118.104746,90.8572496 118.002635,90.8998864 117.869293,90.8461152 L109.807415,87.5446178 C109.67516,87.4897604 109.631437,87.3876494 109.691997,87.2418154 L110.077629,86.2978321 C110.137103,86.153356 110.2403,86.1096329 110.373642,86.1644904 L113.980114,87.6421121 L115.476746,83.9862137 L111.870274,82.508592 C111.736932,82.4548208 111.694024,82.3516235 111.749424,82.2190966 L112.140488,81.2631641 C112.195345,81.1298224 112.297456,81.0871857 112.430798,81.1409569 L120.491318,84.4424542 Z" id="Fill-39"></path>
                    <path d="M122.223647,79.1688302 C122.194589,79.3103191 122.098995,79.3841866 121.958864,79.3551284 L113.430698,77.5937143 C113.289752,77.5646561 113.229192,77.471507 113.260422,77.318069 L114.30543,72.2597743 C114.334488,72.1193717 114.42628,72.0577249 114.567769,72.0870547 L115.323281,72.2426653 C115.464498,72.271995 115.522615,72.3773648 115.493828,72.5185821 L114.705455,76.3347078 L117.433122,76.897676 L118.064526,73.8370628 C118.096843,73.6833532 118.186462,73.635285 118.3399,73.667602 L119.083463,73.8213116 C119.223322,73.8503698 119.285241,73.9424326 119.252652,74.0958706 L118.623692,77.1442631 L121.286453,77.6933811 L122.077813,73.8650347 C122.106871,73.7249037 122.20002,73.6632569 122.340151,73.6923151 L123.095663,73.8481972 C123.236881,73.877527 123.295269,73.9837115 123.26621,74.1241141 L122.223647,79.1688302 Z" id="Fill-41"></path>
                    <path d="M124.020691,63.4635393 C124.014988,63.698992 123.894953,63.8269023 123.683127,63.9401477 L117.4511,67.4018723 L123.710013,67.5363003 C123.854761,67.5387445 123.931072,67.6194013 123.927542,67.7763697 L123.906359,68.7955783 C123.902014,68.9522752 123.822444,69.0285869 123.678782,69.0261427 L114.975724,68.8393014 C114.832062,68.835771 114.754936,68.7562004 114.758195,68.599232 L114.78155,67.52761 C114.786166,67.2921573 114.946665,67.1520263 115.131606,67.0510017 L121.533094,63.5936222 L115.091142,63.4556637 C114.947752,63.4524049 114.870354,63.3714765 114.873613,63.2280867 L114.894795,62.208878 C114.898326,62.0521811 114.978982,61.9758695 115.122372,61.9780421 L123.825431,62.1654265 C123.969092,62.1686854 124.04649,62.2482559 124.04296,62.4052244 L124.020691,63.4635393 Z" id="Fill-43"></path>
                    <path d="M8.87694606,48.7419083 C8.52607541,49.8920145 7.32192643,50.5209746 6.17073394,50.1690177 C5.02035616,49.8170607 4.37129977,48.6232315 4.72325671,47.4728537 C5.07412736,46.3232907 6.28506563,45.6791226 7.43408555,46.0299932 C8.58419175,46.3824933 9.228903,47.5923453 8.87694606,48.7419083" id="Fill-45"></path>
                    <path d="M16.1628349,35.0108352 C16.7885361,34.0410526 16.9487635,33.1106479 15.8668218,32.4137949 C14.8557603,31.7620228 13.9812994,32.2530244 13.3387607,33.251322 L12.2255882,34.9793328 L15.0227769,36.7812112 L16.1628349,35.0108352 Z M11.866842,32.5422483 C12.5463144,31.4871922 12.2524738,30.8017452 11.4923446,30.3123729 C10.7064161,29.8056201 9.90718051,30.0269511 9.16497502,31.1795014 L8.33315086,32.4727259 L10.8622982,34.1021562 L11.866842,32.5422483 Z M15.5273571,39.4537484 C15.409495,39.6365161 15.2492677,39.6712773 15.0651421,39.5534152 L5.79069648,33.5793807 C5.60657086,33.4615185 5.57180968,33.2993902 5.69075809,33.1171656 L7.90814113,29.6733647 C9.20326663,27.663734 10.7132054,26.9861626 12.5539184,28.1721163 C14.2974088,29.2945222 13.9218251,30.5241989 13.6046294,31.0165584 L13.6336876,31.0342106 C14.0584257,30.3740197 15.6202346,29.2135938 17.4633919,30.399819 C19.5137583,31.7204723 19.1751084,33.7898487 18.0081647,35.6028615 L15.5273571,39.4537484 Z" id="Fill-47"></path>
                    <path d="M20.9600134,22.5510163 C21.9645572,21.5958986 22.2649155,20.4322138 21.4363502,19.5610118 C20.6303254,18.713708 19.5530004,18.7685655 18.5351496,19.735904 L17.2872776,20.9221292 L19.8446684,23.6104176 L20.9600134,22.5510163 Z M29.2315447,22.6172798 C29.3355567,22.7253654 29.3559245,22.8448569 29.2684784,23.0431043 C29.1807608,23.218268 28.9971783,23.4618679 28.6718354,23.773089 C26.0677342,26.2495515 23.7303165,22.3133911 21.9398442,24.0175036 L21.0417565,24.869424 L23.8299833,27.7999544 C23.9790762,27.9580091 23.9755458,28.1228532 23.817491,28.2730323 L22.6315373,29.4019559 C22.4745689,29.5510488 22.3086386,29.5472468 22.1595457,29.3897352 L14.5696595,21.409872 C14.4197519,21.2529035 14.4116047,21.0750241 14.5685732,20.9253881 L17.3062876,18.3223732 C19.3892427,16.3412575 21.2277832,16.0447012 23.0361792,17.9457032 C24.2224044,19.1933037 24.0439818,20.6307327 23.6214162,21.4948739 C25.1718191,21.3805422 26.7640441,22.957016 27.8894373,21.9334623 L28.0711188,21.7601995 C28.2044605,21.6339187 28.3098303,21.6480404 28.4600095,21.805552 L29.2315447,22.6172798 Z" id="Fill-49"></path>
                    <path d="M33.5845134,19.9271991 C33.7056343,20.1083374 33.6719595,20.2701941 33.4916358,20.3896857 L32.1248154,21.2942911 C31.9434055,21.4137826 31.7818203,21.381194 31.6609709,21.1995125 L25.575592,12.0021933 C25.454471,11.8205119 25.4881459,11.6586551 25.6673832,11.5386204 L27.0339321,10.6351013 C27.2156135,10.5150666 27.3771987,10.5473837 27.4980481,10.7290651 L33.5845134,19.9271991 Z" id="Fill-51"></path>
                    <path d="M44.1262212,12.4146836 C44.4423307,12.550741 44.5151119,12.7196586 44.4445032,12.933114 C44.2652659,13.6484339 43.6295165,15.3672113 41.5175033,16.2902835 C38.5633462,17.5818786 35.7156452,16.6563622 34.1361841,13.0431006 C32.5643271,9.44559007 33.5857083,6.77495384 36.4939698,5.50481294 C39.8625453,4.03235111 41.5859394,6.26901574 42.1081718,7.17063383 C42.2102827,7.3629066 42.1744353,7.48918745 41.9647819,7.63502146 L40.7505848,8.40302626 C40.4961221,8.56868501 40.3717422,8.49536064 40.2606694,8.32481361 C39.9008369,7.79036048 38.9253513,6.64731514 37.3190046,7.35014273 C35.8489869,7.9926814 35.2202984,9.5979418 36.311202,12.0928711 C37.4211156,14.6350539 39.2998487,15.0532744 40.8144041,14.3917257 C41.9332796,13.9028966 42.4153194,12.7975997 42.6181835,12.217251 C42.6966677,11.982613 42.8088268,11.8601342 43.0567718,11.9701207 L44.1262212,12.4146836 Z" id="Fill-53"></path>
                    <path d="M50.8437919,6.50827042 C52.3730122,6.23805657 53.3740256,4.78949305 52.849349,1.31880655 C52.811329,1.10562276 52.9066507,0.970108474 53.1195629,0.931816862 L54.6835444,0.65725786 C54.8807054,0.622496681 55.0376739,0.64612342 55.0903588,0.942136587 C55.6430072,4.08557917 54.6599176,6.0227002 53.602689,6.85452435 C55.4637699,7.59564356 55.7261082,10.5351358 57.3875839,10.242653 L57.6363436,10.2000163 C57.8169388,10.1674277 57.8943367,10.2225567 57.9437628,10.5017325 L58.1341346,11.5885625 C58.1634643,11.7528633 58.0646122,11.8720833 57.8628344,11.9758237 C57.6746352,12.0597394 57.4166421,12.1382236 57.0052109,12.2112764 C53.5489178,12.8187823 53.6173538,7.90333431 51.1968351,8.32888718 L49.963628,8.54641613 L50.7283739,12.8910204 C50.7653077,13.1058336 50.669986,13.2405332 50.4559875,13.2785532 L48.8436663,13.5620741 C48.6296677,13.6003657 48.4927956,13.505044 48.4558618,13.290774 L46.5442686,2.42872014 C46.5062485,2.21445006 46.6026565,2.07947892 46.816655,2.04173045 L48.4300625,1.7571233 C48.6429748,1.72018955 48.7787606,1.8146965 48.8167807,2.02842344 L49.6407292,6.71955321 L50.8437919,6.50827042 Z" id="Fill-55"></path>
                    <path d="M70.4091488,12.1866177 C70.394484,12.4036035 70.2687463,12.5122322 70.0525752,12.4959379 L68.4190713,12.3778042 C68.2015424,12.362053 68.094,12.23713 68.1083933,12.0196011 L68.4215155,7.72007772 L63.9044632,7.39174752 L63.5926988,11.6920856 C63.576133,11.9090714 63.4514815,12.0171569 63.2339526,12.0016773 L61.6004487,11.8832721 C61.3842777,11.8669778 61.2767353,11.7425979 61.2922149,11.525069 L62.091722,0.52505675 C62.1074731,0.308614095 62.231853,0.19998541 62.4491104,0.215464997 L64.0826142,0.334413408 C64.2979706,0.350164567 64.4065993,0.475087555 64.3911197,0.692073354 L64.0413353,5.50894083 L68.5592023,5.83672789 L68.9079004,1.01986041 C68.92338,0.803146184 69.0491177,0.695603786 69.2655604,0.709997087 L70.8990642,0.828945497 C71.1155069,0.844425085 71.2227777,0.969619645 71.2083844,1.18714859 L70.4091488,12.1866177 Z" id="Fill-57"></path>
                    <path d="M83.3485905,10.1820382 C84.282254,7.41309305 83.3575523,6.02617631 81.9326156,5.54522281 C80.4930139,5.05992416 78.9181695,5.60415387 77.9842344,8.3736422 C77.060619,11.1113566 77.9595214,12.525159 79.4148742,13.0161606 C80.8552906,13.5011877 82.4249751,12.9197527 83.3485905,10.1820382 M75.7206842,7.61025412 C77.011193,3.78000668 79.8578077,2.71272984 82.5784131,3.63037066 C85.2848968,4.54230847 86.9037358,7.11545046 85.6121407,10.9456979 C84.3205456,14.7751306 81.4695858,15.8054737 78.7802111,14.899782 C76.073999,13.9864864 74.4290891,11.4399584 75.7206842,7.61025412" id="Fill-59"></path>
                    <path d="M98.5719774,12.0744314 C98.6898395,11.8916636 98.8508815,11.8563593 99.0483141,11.9826402 L100.413777,12.8581874 C100.596544,12.9752348 100.631306,13.1373631 100.513444,13.3198593 L96.9865417,18.8210875 C94.9755532,21.9590986 92.6370491,21.8895763 90.5549088,20.5545297 C88.4575605,19.2102497 87.3777913,17.0879168 89.3890515,13.9501772 L92.9295319,8.45682462 C93.0381606,8.28790701 93.2097939,8.23929568 93.3925616,8.35634308 L94.7713312,9.24030901 C94.954099,9.35817113 94.990218,9.51948473 94.8712696,9.7022525 L91.2547491,15.3436117 C90.3699685,16.7237391 90.3183699,17.9803015 91.6547743,18.8379249 C92.9776001,19.6855002 94.0706762,19.0959181 94.9554569,17.7168769 L98.5719774,12.0744314 Z" id="Fill-61"></path>
                    <path d="M108.415121,24.4086483 C108.132687,24.3323367 108.064251,24.2131167 108.09005,24.0710847 C108.180755,23.6362984 108.272818,22.5263848 107.228896,21.4680698 C106.382679,20.565637 105.474543,20.4904116 104.908316,21.0354561 C103.104265,22.7740582 108.71548,26.0684946 105.491109,29.1760897 C104.276097,30.347107 102.193142,30.5926078 100.036048,28.3537706 C97.9710163,26.2124276 98.1964208,24.2079568 98.3867926,23.5140911 C98.4250842,23.3375695 98.5942734,23.2224231 98.7824726,23.2501234 L99.9855353,23.318831 C100.187313,23.3109555 100.351071,23.4320764 100.323099,23.6447171 C100.241084,24.257926 100.188399,25.7697657 101.406942,27.0320311 C102.264837,27.9222431 103.147173,28.0925186 103.773689,27.4893578 C105.75915,25.5769498 99.8970029,22.4316062 103.179762,19.2656232 C104.468913,18.0258983 106.618131,18.0413779 108.509357,20.0021257 C110.422036,21.9870434 110.223246,23.7327063 110.03396,24.4260289 C109.995669,24.5555686 109.910667,24.7081919 109.61574,24.6430147 L108.415121,24.4086483 Z" id="Fill-63"></path>
                    <path d="M105.249084,34.372886 C105.141542,34.2020674 105.1706,34.0271753 105.356626,33.9123004 L114.729109,28.0930618 C114.91405,27.9795448 115.074548,28.0164785 115.18888,28.2014189 L118.732348,33.9098563 C118.839076,34.0804033 118.810017,34.2563818 118.625892,34.3707135 L117.618089,34.997501 C117.418756,35.1207945 117.249295,35.0681096 117.134963,34.8828977 L114.639219,30.8649942 L111.997098,32.5042011 L113.928516,35.6145119 C114.042848,35.7989091 114.005914,35.9604943 113.820702,36.074826 L112.826478,36.6918369 C112.641538,36.8067117 112.472348,36.7551131 112.358017,36.5696296 L110.435289,33.4747984 L107.879256,35.0613203 L110.382604,39.0938887 C110.496936,39.278829 110.45973,39.4404142 110.261483,39.5637078 L109.25368,40.1896806 C109.068468,40.3034691 108.897107,40.2518705 108.784133,40.0669302 L105.249084,34.372886 Z" id="Fill-65"></path>
                    <path d="M115.14608,48.8619159 C114.797382,47.7093655 115.451056,46.5166226 116.603334,46.1690108 C117.754798,45.8208558 118.958947,46.4530748 119.307645,47.605082 C119.655257,48.7570892 119.007287,49.9650402 117.854737,50.3137382 C116.701915,50.6610785 115.494779,50.0133799 115.14608,48.8619159" id="Fill-67"></path>
                </g>
            </g>
        </g>
    </g>
</svg>