<?xml version="1.0" encoding="UTF-8"?>
<svg width="30px" height="30px" viewBox="0 0 30 30" version="1.1" xmlns="http://www.w3.org/2000/svg" xmlns:xlink="http://www.w3.org/1999/xlink">
    <!-- Generator: Sketch 46.1 (44463) - http://www.bohemiancoding.com/sketch -->
    <title>Shape</title>
    <desc>Created with Sketch.</desc>
    <defs></defs>
    <g id="Welcome" stroke="none" stroke-width="1" fill="none" fill-rule="evenodd">
        <g id="Duft-&amp;-Co.-Brickhouse" transform="translate(-1292.000000, -41.000000)" fill-rule="nonzero" fill="#FFFFFF">
            <g id="Group-29" transform="translate(0.000000, -1.000000)">
                <g id="Group-18" transform="translate(1224.000000, 42.000000)">
                    <path d="M96.3439306,0 L69.6647399,0 C68.7456647,0 68,0.74566474 68,1.66473988 L68,28.3439306 C68,29.2543353 68.7456647,30 69.6560694,30 L84.0404624,30 L84.0404624,18.3815029 L80.1387283,18.3815029 L80.1387283,13.8728324 L84.0404624,13.8728324 L84.0404624,10.517341 C84.0404624,6.6416185 86.3901734,4.53468208 89.8410405,4.53468208 C91.4971098,4.53468208 92.8843931,4.65606936 93.3179191,4.71676301 L93.3179191,8.76589595 L90.9421965,8.76589595 C89.0606936,8.76589595 88.7225434,9.65895954 88.7225434,10.9682081 L88.7225434,13.8728324 L93.1791908,13.8728324 L92.5982659,18.3815029 L88.7225434,18.3815029 L88.7225434,30 L96.3439306,30 C97.2543353,30 98,29.2543353 98,28.3439306 L98,1.66473988 C98,0.74566474 97.2543353,0 96.3439306,0 Z" id="Shape"></path>
                </g>
            </g>
        </g>
    </g>
</svg>