<?xml version="1.0" encoding="UTF-8"?>
<svg width="30px" height="25px" viewBox="0 0 30 25" version="1.1" xmlns="http://www.w3.org/2000/svg" xmlns:xlink="http://www.w3.org/1999/xlink">
    <!-- Generator: Sketch 46.1 (44463) - http://www.bohemiancoding.com/sketch -->
    <title>Shape</title>
    <desc>Created with Sketch.</desc>
    <defs></defs>
    <g id="Welcome" stroke="none" stroke-width="1" fill="none" fill-rule="evenodd">
        <g id="Duft-&amp;-Co.-Brickhouse" transform="translate(-1360.000000, -44.000000)" fill-rule="nonzero" fill="#FFFFFF">
            <g id="Group-29" transform="translate(0.000000, -1.000000)">
                <g id="Group-18" transform="translate(1224.000000, 42.000000)">
                    <path d="M162.516304,6.83435101 C162.777863,6.71716534 162.98411,6.50060622 163.191763,6.34029623 C164.129248,5.61796376 164.739082,4.66688487 165.188606,3.45096637 C164.934079,3.59065169 164.678614,3.73033701 164.42315,3.87002232 C163.635193,4.26985983 162.298339,4.84453835 161.269449,4.93266197 C160.05728,3.82830423 158.788863,2.95972405 156.404837,3.00144215 C156.154529,3.03144168 155.90422,3.06144121 155.653912,3.09144074 C155.167826,3.19784533 154.704708,3.32956202 154.287058,3.51049669 C152.54146,4.26798486 151.351323,5.68124402 150.803831,7.64199464 C150.585866,8.42198245 150.497273,9.72555583 150.773832,10.5313245 C149.789003,10.5299183 148.835581,10.3747644 148.011062,10.1717989 C144.761269,9.3725926 142.737238,8.29260947 140.490086,6.53482444 C139.830096,6.01873875 139.182763,5.43374789 138.65824,4.7836018 C138.489024,4.57407382 138.222309,4.39032669 138.10278,4.13954936 C137.81169,4.60829204 137.566538,5.13234635 137.412322,5.72624332 C136.802956,8.06714424 137.766222,10.033051 138.793706,11.3099061 C139.104951,11.6970875 139.609787,11.9370838 139.919626,12.2980156 C139.716661,12.3842643 139.311667,12.2647349 139.108701,12.2230168 C138.628709,12.1241121 138.219497,12.033176 137.817315,11.8639599 C137.607319,11.7641177 137.396853,11.6642755 137.186856,11.5644333 C137.177013,14.1504867 138.483399,15.8313979 140.084624,16.8335698 C140.606803,17.1602834 141.337104,17.6004328 142.096467,17.6416821 C141.690067,17.9848018 139.95197,17.8273042 139.348698,17.7616803 C140.102905,19.7032124 141.261637,20.9960047 143.252387,21.6981813 C143.766129,21.8795847 144.392838,22.0398947 145.084233,22.0277074 C144.717208,22.463638 143.933939,22.818945 143.417384,23.1203465 C142.352401,23.7433056 141.115858,24.1473617 139.723692,24.452982 C139.165419,24.5748551 138.571991,24.5500117 137.966844,24.6470414 C137.297948,24.7548522 136.598116,24.5903236 136,24.5720426 C136.179997,24.6817284 136.360463,24.7923517 136.54046,24.9015687 C137.089358,25.2357822 137.66263,25.5287464 138.282308,25.7996797 C139.397447,26.2876408 140.58571,26.6556038 141.901002,26.9823174 C144.553148,27.6404322 148.294652,27.3446555 150.609772,26.6232606 C157.056858,24.6137607 161.129295,19.9235215 162.666771,13.0156607 C162.931142,11.827398 162.969579,10.4778878 162.952235,9.06369117 C163.272855,8.8091639 163.593006,8.55463663 163.913158,8.30010935 C164.706739,7.66449429 165.450634,6.77857063 166,5.90483428 C164.953766,6.21795439 163.852221,6.82028873 162.516304,6.83435101 Z" id="Shape"></path>
                </g>
            </g>
        </g>
    </g>
</svg>